name C:\Users\u0101727\Documents\MyRepositories\upper-imu-dc\Results\main_tracking\Case_46\FLX02_linearAccelerations_groundFrame.mot
datacolumns 4
datarows 117
range 3.76000000 4.92000000
endheader 
time	radius_imu_x	radius_imu_y	radius_imu_z	
          3.76000000	          0.88022982	          9.71671722	          0.31953821	
          3.77000000	          0.91326433	          9.71689993	          0.33104218	
          3.78000000	          0.94847794	          9.71618889	          0.33876397	
          3.79000000	          0.98582273	          9.71406096	          0.34242677	
          3.80000000	          1.02485339	          9.71007144	          0.34211008	
          3.81000000	          1.06473049	          9.70389960	          0.33826261	
          3.82000000	          1.10429819	          9.69534968	          0.33165843	
          3.83000000	          1.14222714	          9.68431404	          0.32328774	
          3.84000000	          1.17719973	          9.67073979	          0.31418354	
          3.85000000	          1.20809805	          9.65463214	          0.30520893	
          3.86000000	          1.23414375	          9.63609052	          0.29685288	
          3.87000000	          1.25494762	          9.61535316	          0.28909021	
          3.88000000	          1.27046024	          9.59283022	          0.28134517	
          3.89000000	          1.28085290	          9.56911304	          0.27256538	
          3.90000000	          1.28636986	          9.54495230	          0.26138569	
          3.91000000	          1.28718231	          9.52120502	          0.24634750	
          3.92000000	          1.28326616	          9.49875762	          0.22613660	
          3.93000000	          1.27433158	          9.47843657	          0.19980840	
          3.94000000	          1.25983161	          9.46092403	          0.16697221	
          3.95000000	          1.23905819	          9.44669966	          0.12790212	
          3.96000000	          1.21130950	          9.43602014	          0.08354819	
          3.97000000	          1.17609134	          9.42892818	          0.03544746	
          3.98000000	          1.13329522	          9.42527539	         -0.01443708	
          3.99000000	          1.08329789	          9.42474593	         -0.06391213	
          4.00000000	          1.02695865	          9.42687126	         -0.11075855	
          4.01000000	          0.96552690	          9.43104347	         -0.15293554	
          4.02000000	          0.90048470	          9.43655046	         -0.18877650	
          4.03000000	          0.83335359	          9.44265307	         -0.21715189	
          4.04000000	          0.76550625	          9.44870109	         -0.23756182	
          4.05000000	          0.69802128	          9.45425018	         -0.25013235	
          4.06000000	          0.63160402	          9.45912732	         -0.25551561	
          4.07000000	          0.56659063	          9.46341421	         -0.25471932	
          4.08000000	          0.50304003	          9.46735681	         -0.24890928	
          4.09000000	          0.44088781	          9.47123856	         -0.23923421	
          4.10000000	          0.38011170	          9.47526342	         -0.22671175	
          4.11000000	          0.32086645	          9.47948359	         -0.21218867	
          4.12000000	          0.26356898	          9.48378418	         -0.19636107	
          4.13000000	          0.20891862	          9.48791531	         -0.17982008	
          4.14000000	          0.15783777	          9.49155294	         -0.16308775	
          4.15000000	          0.11133172	          9.49436269	         -0.14663204	
          4.16000000	          0.07029525	          9.49604558	         -0.13087623	
          4.17000000	          0.03532537	          9.49637397	         -0.11622243	
          4.18000000	          0.00661143	          9.49524230	         -0.10308638	
          4.19000000	         -0.01605659	          9.49273008	         -0.09192442	
          4.20000000	         -0.03317755	          9.48913753	         -0.08323317	
          4.21000000	         -0.04538764	          9.48495872	         -0.07751124	
          4.22000000	         -0.05333544	          9.48079354	         -0.07518584	
          4.23000000	         -0.05761779	          9.47722840	         -0.07652325	
          4.24000000	         -0.05876808	          9.47472352	         -0.08155043	
          4.25000000	         -0.05727521	          9.47354301	         -0.09001035	
          4.26000000	         -0.05362532	          9.47375109	         -0.10136149	
          4.27000000	         -0.04836806	          9.47526990	         -0.11482084	
          4.28000000	         -0.04219648	          9.47796655	         -0.12943368	
          4.29000000	         -0.03601017	          9.48172581	         -0.14414221	
          4.30000000	         -0.03093213	          9.48647763	         -0.15783536	
          4.31000000	         -0.02827297	          9.49218440	         -0.16938544	
          4.32000000	         -0.02945286	          9.49882248	         -0.17769193	
          4.33000000	         -0.03589664	          9.50638556	         -0.18174639	
          4.34000000	         -0.04890391	          9.51490944	         -0.18072441	
          4.35000000	         -0.06948908	          9.52450364	         -0.17408983	
          4.36000000	         -0.09819324	          9.53537511	         -0.16168550	
          4.37000000	         -0.13490581	          9.54782299	         -0.14378364	
          4.38000000	         -0.17876778	          9.56218729	         -0.12107448	
          4.39000000	         -0.22821658	          9.57876420	         -0.09458679	
          4.40000000	         -0.28117677	          9.59772151	         -0.06556062	
          4.41000000	         -0.33533704	          9.61904408	         -0.03530939	
          4.42000000	         -0.38841834	          9.64251736	         -0.00510673	
          4.43000000	         -0.43835947	          9.66773456	          0.02388203	
          4.44000000	         -0.48340623	          9.69411307	          0.05062537	
          4.45000000	         -0.52213603	          9.72092426	          0.07422889	
          4.46000000	         -0.55346190	          9.74734514	          0.09394399	
          4.47000000	         -0.57663941	          9.77252492	          0.10920445	
          4.48000000	         -0.59127202	          9.79564292	          0.11969476	
          4.49000000	         -0.59730019	          9.81594076	          0.12542507	
          4.50000000	         -0.59495469	          9.83272883	          0.12677376	
          4.51000000	         -0.58466420	          9.84537844	          0.12446382	
          4.52000000	         -0.56693057	          9.85331169	          0.11946653	
          4.53000000	         -0.54221329	          9.85600256	          0.11285764	
          4.54000000	         -0.51087895	          9.85300678	          0.10566893	
          4.55000000	         -0.47324734	          9.84402646	          0.09877301	
          4.56000000	         -0.42971692	          9.82898750	          0.09282297	
          4.57000000	         -0.38091298	          9.80808800	          0.08825413	
          4.58000000	         -0.32779111	          9.78178315	          0.08534029	
          4.59000000	         -0.27164790	          9.75070354	          0.08428049	
          4.60000000	         -0.21402363	          9.71554135	          0.08528393	
          4.61000000	         -0.15651907	          9.67695398	          0.08863089	
          4.62000000	         -0.10058644	          9.63551328	          0.09469551	
          4.63000000	         -0.04737158	          9.59169414	          0.10390994	
          4.64000000	          0.00235166	          9.54588643	          0.11666034	
          4.65000000	          0.04817226	          9.49842825	          0.13313999	
          4.66000000	          0.08998777	          9.44966352	          0.15320574	
          4.67000000	          0.12791007	          9.40001457	          0.17628066	
          4.68000000	          0.16213537	          9.35004439	          0.20132963	
          4.69000000	          0.19281528	          9.30047404	          0.22690792	
          4.70000000	          0.21998505	          9.25214272	          0.25127775	
          4.71000000	          0.24356201	          9.20594063	          0.27260014	
          4.72000000	          0.26336612	          9.16274595	          0.28918747	
          4.73000000	          0.27912770	          9.12336444	          0.29975782	
          4.74000000	          0.29050821	          9.08846269	          0.30362536	
          4.75000000	          0.29716339	          9.05850104	          0.30078838	
          4.76000000	          0.29882635	          9.03368807	          0.29190492	
          4.77000000	          0.29537011	          9.01397067	          0.27817824	
          4.78000000	          0.28681522	          8.99907212	          0.26119497	
          4.79000000	          0.27328322	          8.98857603	          0.24276131	
          4.80000000	          0.25493836	          8.98202972	          0.22475317	
          4.81000000	          0.23198698	          8.97899546	          0.20899891	
          4.82000000	          0.20469753	          8.97908723	          0.19712424	
          4.83000000	          0.17342476	          8.98197364	          0.19041398	
          4.84000000	          0.13858570	          8.98740217	          0.18968759	
          4.85000000	          0.10061422	          8.99523655	          0.19522364	
          4.86000000	          0.05993895	          9.00548058	          0.20674890	
          4.87000000	          0.01701149	          9.01826142	          0.22347995	
          4.88000000	         -0.02763862	          9.03377570	          0.24420621	
          4.89000000	         -0.07335232	          9.05221103	          0.26738378	
          4.90000000	         -0.11931821	          9.07365654	          0.29123081	
          4.91000000	         -0.16458411	          9.09801422	          0.31383358	
          4.92000000	         -0.20810463	          9.12493541	          0.33328845	
